<svg id="Calque_1" data-name="Calque 1" xmlns="http://www.w3.org/2000/svg" viewBox="0 0 280.4 105.73"><defs><style>.cls-1,.cls-2{font-size:35.9px;font-family:Avenir-Book, Avenir;}.cls-1{fill:#1a3846;}.cls-2,.cls-5{fill:#d6341e;}.cls-3{fill:#fff;stroke:#2a586a;stroke-linecap:round;stroke-linejoin:round;stroke-width:0.36px;opacity:0.69;}.cls-4{fill:#28576a;}.cls-6{fill:#fcc737;}.cls-7{fill:#0e0d12;}</style></defs><title>sochicsographic-coq-fabrication-francaise</title><text class="cls-1" transform="translate(101.6 54.88)">Fabrication</text><text class="cls-2" transform="translate(101.6 86.45)">française</text><path class="cls-3" d="M355.75,323.46c0,2.68-.8,5.34-.59,8,.09,1.18-.08,2.36-.08,3.54a5.23,5.23,0,0,0,.92,3.35,6,6,0,0,0,1.29,1.11A23.36,23.36,0,0,0,362.2,342c-1,.29-2.09-.3-3.1-.67a8.09,8.09,0,0,0-3.58-.49c-.06.67.65,1.11,1.15,1.56a3.48,3.48,0,0,1,1.11,2.77c-1.31-.75-2-2.23-3.32-3.05a6.14,6.14,0,0,0-1.24-.59,4.82,4.82,0,0,0-3.27-.27c-1.63.59-2.47,2.5-4.07,3.17-.27-1.16.67-2.21,1.45-3.11a18.3,18.3,0,0,0,3.87-7.24c.89-3.32.84-6.83,1.66-10.16a1.84,1.84,0,0,1,.32-.76,1.31,1.31,0,0,1,1.14-.36A6.09,6.09,0,0,1,355.75,323.46Z" transform="translate(-293.33 -244.68)"/><path class="cls-3" d="M353,341.92a5.9,5.9,0,0,0,1,2.13c1.11,1.23,3,1.31,4.63,1.46a9.42,9.42,0,0,1,3.32.77,4.08,4.08,0,0,1,2.23,2.48,12.56,12.56,0,0,0-6.21-1.69c1.23.65,2.46,1.77,2.34,3.15a21,21,0,0,0-3-1.07l-2.85-.84a8.77,8.77,0,0,0-1.61-.38,7.73,7.73,0,0,0-1.86.06,30.41,30.41,0,0,0-5.07,1,1.68,1.68,0,0,1,1-1.49c.56-.31,1.2-.46,1.73-.8a3.81,3.81,0,0,0,1.53-3,13.09,13.09,0,0,0-.46-3.45c-.76-3.56-1.15-7.21-2.22-10.69,0-.11,2.89.12,3.27.63s.13,1.31.16,1.8c0,.65.1,1.31.19,2A43.11,43.11,0,0,0,353,341.92Z" transform="translate(-293.33 -244.68)"/><path class="cls-4" d="M340.21,324.65c-.47,0-.64-.62-.79-1.07s-.63-.93-1-.65a.68.68,0,0,0-.23.36,6.14,6.14,0,0,0-.45,2.32,1.83,1.83,0,0,1-1.83-.29,5.11,5.11,0,0,1-2.78-3.4,6.11,6.11,0,0,1,.4-2.53l3.34-10.89c.3,1.77.65,3.53,1.07,5.27a9,9,0,0,0,.95,2.63,6.27,6.27,0,0,0,2,1.93c.66.4,2.28.7,2.74,1.24s-.71,1.68-1.25,2.35C342.14,322.25,340.54,324.68,340.21,324.65Z" transform="translate(-293.33 -244.68)"/><path class="cls-3" d="M347,283a12.58,12.58,0,0,0-4.47-4,25,25,0,0,0-5.27-1.86l-4.52-1.22a28.2,28.2,0,0,0-11.8-1,11.55,11.55,0,0,0-5.05,1c-2.24,1.23-3.4,3.73-4.42,6.07-1.63,3.74-3.28,7.59-3.39,11.67a67.4,67.4,0,0,0,.74,7.48,9.65,9.65,0,0,0,.73,3.38,54.44,54.44,0,0,0,4-8.77,3.65,3.65,0,0,1,.68-1.33,6.16,6.16,0,0,1,1.38-.89c1-.59,1.63-1.55,2.53-2.22s2.31-.95,3.09-.13a.63.63,0,0,1,.21.42c0,.43-.57.55-1,.6a6.11,6.11,0,0,0-4.29,3.17,18.29,18.29,0,0,0-1.7,5.24,4.35,4.35,0,0,0-.07,2.29,1.47,1.47,0,0,0,1.81,1,2.24,2.24,0,0,0,.77-.7l2.85-3.66c.3-.39.68-.81,1.17-.77a20.46,20.46,0,0,1-1.16,5.94l1.23.05c1.2-1.84,1.42-4.28,2.95-5.85a9.33,9.33,0,0,1,1.95-1.39l7.19-4.26c2.19-1.3,4.39-2.6,6.65-3.76,1.56-.8,3.22-1.61,4.18-3.06.46-.7.74-1.51,1.2-2.2S346.12,282.87,347,283Z" transform="translate(-293.33 -244.68)"/><path class="cls-5" d="M347.81,283.36a1.74,1.74,0,0,0-.46-.51,1.6,1.6,0,0,0-.75-.15,9.91,9.91,0,0,0-4.44.47,6.56,6.56,0,0,1-1.35.54c-.93.17-1.84-.35-2.77-.46-1.49-.18-2.89.65-4.16,1.44L330,287.16a6.49,6.49,0,0,0-2,1.69c-.57.82-.74,1.86-1.27,2.71-.79,1.26-2.28,1.94-3.09,3.18s-.81,3.14-1.47,4.63c-.28.65-.71,1.24-.94,1.91a7.3,7.3,0,0,0-.12,3,12.29,12.29,0,0,0,1.31,5.13l-.09-3.67c0-.54.28-1.31.78-1.1a14.54,14.54,0,0,0,1.15,4l.52-1.69a21.4,21.4,0,0,0,2.11,6.66l-.44-4.72c-.05-.52-.05-1.16.39-1.45a22.6,22.6,0,0,0,1.85,7.77,14.47,14.47,0,0,0,.24-4,.88.88,0,0,1,1.15.23.55.55,0,0,1,.67-.24v5.3a2.57,2.57,0,0,0,.75-2.14l1.69.72c.31-2.28-.58-4.74.39-6.83.42-.91,1.15-1.63,1.63-2.51a19.55,19.55,0,0,0,1.1-3.29,20.35,20.35,0,0,1,1.64-3.43c.73-1.31,2.46-2.24,2.49-3.74s1.41-2.8,2.73-5.23c.19-.34,2-1.31,2.49-2.08.29-.43-.35-.91-.17-1.16.42-.59,3-.78,3.43-1.25C349.84,284.47,348.49,284.35,347.81,283.36Z" transform="translate(-293.33 -244.68)"/><path class="cls-4" d="M377.25,294.83l-1.7,1c-.13-.81-.37-1.77-1.14-2s-1.53.34-2.11.89a21.4,21.4,0,0,0-4,4.63,10.65,10.65,0,0,0-1.43,5.14,2.32,2.32,0,0,1-1.75-1.74c-.13-.57-.32-1.43-.89-1.28-.18,0-.31.2-.48.26-.58.22-1-.56-1.18-1.15a9.49,9.49,0,0,0-2.41-3.95l-.24,2.64c-1.62-.23-.82-3.52-2.42-3.92a38.2,38.2,0,0,0,1.25,9.46,16.89,16.89,0,0,1-3.81-7.2l-1.07.94a2.73,2.73,0,0,1-1.49-1.79l-1.08,5a4.75,4.75,0,0,1-1.52-4.43,6.52,6.52,0,0,0-2.26,3.18.53.53,0,0,0-.79.38l.08-5.26a1.18,1.18,0,0,1-.72,1.09,7.05,7.05,0,0,1-.8.15,1.85,1.85,0,0,0-1.36,2l-1.14.33a23.9,23.9,0,0,1,.42-3.78,17.28,17.28,0,0,1-3.08,3.79c0-1.36.11-2.72.16-4.08a4.32,4.32,0,0,1,.16-1.19,4.66,4.66,0,0,1,.48-.91,31.66,31.66,0,0,1,1.83-2.63c-.51-.07-1-.12-1.53-.16a3.83,3.83,0,0,0-3.14.7,4.84,4.84,0,0,0-.91,2.21c-.77,2.82-2.84,5.22-3.2,8.12a13.47,13.47,0,0,0,.48,4.63,19.3,19.3,0,0,0,.67,2.28c-1.41,2.51-1.67,5.57-1.8,8.48a15.15,15.15,0,0,0,.28,4.71,5.11,5.11,0,0,0,2.92,3.51,1,1,0,0,0,.61.06,1.13,1.13,0,0,0,.62-.63l1.68-2.94a.84.84,0,0,1,1.5-.23l3,2.1a4.29,4.29,0,0,1,1,.91,5.47,5.47,0,0,1,.62,2.8,5.24,5.24,0,0,0,1.63,3.61,2.91,2.91,0,0,0,3.72.14,4.09,4.09,0,0,0,.87-1.39,15,15,0,0,0,.92-2.92,1.56,1.56,0,0,0,1.81-.5,19.69,19.69,0,0,0,1.11-1.69c1.14-1.57,3.19-2.11,5-2.7a3.08,3.08,0,0,0,1.15-.56,5.35,5.35,0,0,0,.7-.91c2-2.74,6.17-2.77,8.77-4.91.88-.73,2.3-.41,3.19-1.12a3.39,3.39,0,0,0,.8-1.1,16.73,16.73,0,0,0,2.37-6.4c.06-.81,0-1.64.11-2.46a18.27,18.27,0,0,1,.86-3,19.73,19.73,0,0,0,.85-7.48,20.88,20.88,0,0,1-2.16,4.07C377.28,296.71,377.27,295.77,377.25,294.83Z" transform="translate(-293.33 -244.68)"/><path class="cls-3" d="M380.67,298.37a32,32,0,0,1-1.15-7.4,29,29,0,0,0-.35-5.11,36.2,36.2,0,0,0-1.41-4.15,46.26,46.26,0,0,1-1.38-5.07c-.58-2.53-1-5.14-1.79-7.62-.59-1.87-1.8-3.45-2.3-5.36-.66-2.48-.49-5.21-1.71-7.46a3,3,0,0,0-2.53-1.83,3.83,3.83,0,0,0-2.49,1.67,76.68,76.68,0,0,0-6.38,8.45,92.58,92.58,0,0,0-4.67,8.66c-.75,1.51-1.49,3-2.09,4.58-.9,2.34-1.5,4.85-3,6.88a3.06,3.06,0,0,1-1,1,6.65,6.65,0,0,1-1.83.4A1.69,1.69,0,0,0,345.2,287l.39.88a9.44,9.44,0,0,0-2.86,2.52,31.66,31.66,0,0,0-1.83,2.63,4.66,4.66,0,0,0-.48.91,4.32,4.32,0,0,0-.16,1.19c-.05,1.36-.11,2.72-.16,4.08a17.28,17.28,0,0,0,3.08-3.79,23.9,23.9,0,0,0-.42,3.78l1.14-.33a1.85,1.85,0,0,1,1.36-2,7.05,7.05,0,0,0,.8-.15,1.18,1.18,0,0,0,.72-1.09l-.08,5.26a.53.53,0,0,1,.79-.38,6.52,6.52,0,0,1,2.26-3.18,4.75,4.75,0,0,0,1.52,4.43l1.08-5a2.73,2.73,0,0,0,1.49,1.79l1.07-.94a16.89,16.89,0,0,0,3.81,7.2,38.2,38.2,0,0,1-1.25-9.46c1.6.4.8,3.69,2.42,3.92l.24-2.64a9.49,9.49,0,0,1,2.41,3.95c.18.59.6,1.37,1.18,1.15.17-.06.3-.22.48-.26.57-.15.76.71.89,1.28a2.32,2.32,0,0,0,1.75,1.74,10.65,10.65,0,0,1,1.43-5.14,21.4,21.4,0,0,1,4-4.63c.58-.55,1.34-1.14,2.11-.89s1,1.22,1.14,2l1.7-1c0,.94,0,1.88.05,2.81a20.88,20.88,0,0,0,2.16-4.07c.07-.19.17-.37.24-.56A8.89,8.89,0,0,0,380.67,298.37Z" transform="translate(-293.33 -244.68)"/><path class="cls-6" d="M376,258.42a8.66,8.66,0,0,1,1.4-.42,2.41,2.41,0,0,1,2,.91,4.78,4.78,0,0,1,.9,2.06,2.45,2.45,0,0,0-1.41-.37c-1.66-.07-3.65,1.12-5.29.86-.5-.08-.78-1.34-.85-1.84a1,1,0,0,1,.25-.73,3.08,3.08,0,0,1,2.06-1.1,7.68,7.68,0,0,1,2.39.14" transform="translate(-293.33 -244.68)"/><path class="cls-5" d="M376.82,258.29a1.65,1.65,0,0,0,1.34-.9,2.54,2.54,0,0,0-.42-2.12c-.69-1.29-1.36-2.6-2-3.9l-.4-.77c-.26-.51-.52-1-.75-1.55a4.94,4.94,0,0,0-.83-1.51l0,1.58a.52.52,0,0,1-.09.37c-.15.16-.43.06-.54-.12a1.25,1.25,0,0,1-.11-.61,1.74,1.74,0,0,0-.23-.95.79.79,0,0,0-.84-.39,1,1,0,0,0-.62,1,3.94,3.94,0,0,1-.12,1.24,1.17,1.17,0,0,1-1.37.65,2.39,2.39,0,0,1-1-.71,23.81,23.81,0,0,0-6.12-4.57c-.3.46,0,1.05.35,1.51a20.37,20.37,0,0,1,2.33,4.61c-1.63.3-3.3-.69-4.92-.36a.59.59,0,0,0-.36.18c-.13.19,0,.43.08.63l.54,1a.91.91,0,0,1,.15.63.73.73,0,0,1-.64.44,3.06,3.06,0,0,0-.81.16c-.24.13-.4.48-.22.69a.74.74,0,0,1,.75.58,7.09,7.09,0,0,1,.14,1,2.57,2.57,0,0,0,2.73,1.89,4.92,4.92,0,0,0,3.12-1.68,3.68,3.68,0,0,1,1.72-1.3c.27-.06.64,0,.66.32a.7.7,0,0,1-.08.27c-.74,1.44-2.16,2.45-2.85,3.91a6.66,6.66,0,0,0-.56,2.11,4.2,4.2,0,0,0,0,1.5,3.32,3.32,0,0,0,1.74,2.06,8.91,8.91,0,0,0,2.65.78,2.41,2.41,0,0,1,.94.3,3.18,3.18,0,0,1,.83,1.37,3.3,3.3,0,0,0,1.59,1.6,2.51,2.51,0,0,0,2.22-.07,4.45,4.45,0,0,0,1.59-2,9.28,9.28,0,0,0,.81-1.86,9.54,9.54,0,0,0,.13-3.33,2.07,2.07,0,0,0-.27-1c-.2-.3-3-.62-3.6-.9v-.31a11.87,11.87,0,0,1,2.32-1.27" transform="translate(-293.33 -244.68)"/><circle class="cls-7" cx="76.52" cy="14.02" r="1.12"/><path class="cls-4" d="M341.32,266.77a19.82,19.82,0,0,0-.69-3.41,16.45,16.45,0,0,0-1.38-2.79l-3-5.2a2.4,2.4,0,0,0-.69-.85,4.23,4.23,0,0,0-1-.35c-1.36-.43-2.2-1.73-3.09-2.86a17.68,17.68,0,0,0-14.33-6.62,4,4,0,0,0-2,.46,4.1,4.1,0,0,0-1.51,3,23.18,23.18,0,0,0-.24,5.13c-.6-.47-1.43.29-1.63,1s-.19,1.62-.8,2.08a2.3,2.3,0,0,1-1,.35,9.08,9.08,0,0,0-4.63,1.81,10.06,10.06,0,0,0-1.76,2.33c-2.67,4.37-5.36,8.8-6.84,13.7-1.24,4.12-1.61,8.52-3.41,12.44l2.46-6.11a23.53,23.53,0,0,1,2.67-5.3c.92-1.25,2.09-2.31,3.09-3.51,1.39-1.68,2.48-3.63,4.13-5.05a2.38,2.38,0,0,1,1.83-.75c.91.13,1.42,1.09,1.79,1.93l2.33,5.3a17.08,17.08,0,0,0,2.24,4.06,17.27,17.27,0,0,0,4.29,3.44,2.38,2.38,0,0,0,1,.44,2.6,2.6,0,0,0,1.12-.24c4.17-1.63,8.89-2.75,13.07-1.15,1.91.73,3.58,2,5.43,2.86a1.29,1.29,0,0,0,.78.18c.39-.06.64-.41,1-.64,1.22-.87,2.72.12,4-.33,1.69-.58.25-2.73-.15-3.92A68.66,68.66,0,0,1,341.32,266.77Z" transform="translate(-293.33 -244.68)"/></svg>