<?xml version="1.0" encoding="utf-8"?>
<!-- Generator: Adobe Illustrator 23.0.3, SVG Export Plug-In . SVG Version: 6.00 Build 0)  -->
<svg version="1.1" id="Calque_1" xmlns="http://www.w3.org/2000/svg" xmlns:xlink="http://www.w3.org/1999/xlink" x="0px" y="0px"
	 viewBox="0 0 841.89 595.28" style="enable-background:new 0 0 841.89 595.28;" xml:space="preserve">
<style type="text/css">
	.st0{fill:#1A3846;}
	.st1{font-family:'Avenir-Book';}
	.st2{font-size:35.9048px;}
	.st3{fill:#D6341E;}
	
		.st4{opacity:0.69;fill:#FFFFFF;stroke:#2A586A;stroke-width:0.3642;stroke-linecap:round;stroke-linejoin:round;stroke-miterlimit:10;}
	.st5{fill:#28576A;}
	.st6{fill:#FCC737;}
	.st7{fill:#0E0D12;}
</style>
<text transform="matrix(1 0 0 1 394.9258 299.5555)" class="st0 st1 st2">Fabrication</text>
<text transform="matrix(1 0 0 1 394.9258 331.1309)" class="st3 st1 st2">française</text>
<g>
	<path class="st4" d="M355.75,323.46c0.04,2.68-0.79,5.34-0.59,8.01c0.09,1.18-0.08,2.36-0.08,3.54s0.18,2.43,0.92,3.35
		c0.36,0.44,0.82,0.79,1.29,1.11c1.53,1.04,3.18,1.9,4.91,2.55c-1.04,0.29-2.09-0.3-3.1-0.68c-1.14-0.43-2.37-0.59-3.59-0.49
		c-0.05,0.67,0.65,1.11,1.15,1.56c0.77,0.69,1.19,1.75,1.11,2.77c-1.31-0.75-2.05-2.24-3.31-3.05c-0.39-0.25-0.81-0.43-1.25-0.59
		c-1.05-0.38-2.22-0.64-3.27-0.27c-1.63,0.59-2.47,2.5-4.07,3.17c-0.27-1.16,0.67-2.21,1.45-3.1c1.81-2.08,3.15-4.58,3.87-7.25
		c0.89-3.32,0.84-6.82,1.66-10.16c0.07-0.27,0.14-0.55,0.32-0.76c0.27-0.31,0.72-0.41,1.13-0.36
		C354.73,322.88,355.38,323.27,355.75,323.46z"/>
	<path class="st4" d="M353.04,341.92c0.24,0.76,0.52,1.53,1.05,2.12c1.11,1.23,2.97,1.32,4.63,1.46c1.14,0.1,2.3,0.27,3.32,0.77
		s1.93,1.37,2.23,2.47c-1.88-1.09-4.04-1.68-6.21-1.69c1.23,0.65,2.46,1.77,2.35,3.16c-0.96-0.46-1.99-0.77-3.01-1.07
		c-0.95-0.28-1.89-0.57-2.84-0.85c-0.53-0.16-1.06-0.32-1.61-0.38c-0.62-0.07-1.24-0.01-1.86,0.06c-1.72,0.21-3.42,0.56-5.07,1.05
		c-0.06-0.63,0.45-1.19,1.01-1.5c0.56-0.3,1.2-0.45,1.74-0.8c0.98-0.63,1.46-1.84,1.53-3c0.07-1.16-0.22-2.32-0.46-3.46
		c-0.76-3.56-1.15-7.21-2.21-10.69c-0.03-0.1,2.88,0.13,3.26,0.63c0.29,0.38,0.14,1.31,0.17,1.8c0.04,0.66,0.1,1.31,0.18,1.97
		C351.55,336.68,352.21,339.34,353.04,341.92z"/>
	<path class="st5" d="M340.21,324.65c-0.47-0.05-0.64-0.62-0.79-1.07c-0.15-0.45-0.63-0.93-1.01-0.66
		c-0.12,0.09-0.18,0.23-0.24,0.36c-0.29,0.74-0.45,1.53-0.44,2.32c-0.56,0.34-1.28,0.04-1.84-0.29c-1.31-0.77-2.58-1.9-2.77-3.41
		c-0.11-0.85,0.15-1.71,0.4-2.53c1.11-3.63,2.23-7.26,3.34-10.88c0.29,1.77,0.65,3.52,1.06,5.26c0.22,0.91,0.46,1.83,0.95,2.63
		c0.5,0.81,1.23,1.43,2.04,1.93c0.66,0.41,2.28,0.71,2.74,1.25c0.58,0.69-0.71,1.68-1.25,2.34
		C342.14,322.25,340.54,324.68,340.21,324.65z"/>
	<path class="st4" d="M346.95,282.95c-1.14-1.66-2.69-3.04-4.47-3.98c-1.65-0.87-3.47-1.37-5.27-1.86
		c-1.51-0.41-3.01-0.81-4.52-1.22c-1.3-0.35-2.6-0.7-3.92-0.91c-2.6-0.41-5.25-0.27-7.88-0.13c-1.73,0.09-3.53,0.21-5.06,1.04
		c-2.24,1.23-3.4,3.73-4.42,6.07c-1.63,3.74-3.28,7.59-3.38,11.67c-0.06,2.5,0.52,4.99,0.74,7.48c0.1,1.15,0.21,2.34,0.73,3.37
		c1.58-2.8,2.91-5.73,3.97-8.77c0.17-0.47,0.33-0.96,0.68-1.33c0.38-0.4,0.91-0.6,1.38-0.89c0.96-0.59,1.63-1.56,2.54-2.22
		c0.91-0.67,2.31-0.95,3.09-0.14c0.11,0.12,0.21,0.26,0.21,0.42c0,0.43-0.57,0.55-0.99,0.6c-1.83,0.22-3.36,1.57-4.28,3.17
		s-1.32,3.43-1.7,5.23c-0.16,0.76-0.32,1.56-0.07,2.29c0.26,0.73,1.1,1.31,1.81,1.01c0.32-0.14,0.55-0.43,0.77-0.71
		c0.95-1.22,1.9-2.44,2.85-3.66c0.3-0.39,0.69-0.81,1.18-0.77c-0.09,2.02-0.49,4.03-1.16,5.94c0.41,0.02,0.82,0.03,1.22,0.05
		c1.2-1.84,1.42-4.27,2.95-5.84c0.56-0.57,1.26-0.99,1.94-1.39c2.4-1.42,4.8-2.84,7.2-4.26c2.19-1.3,4.39-2.6,6.65-3.76
		c1.55-0.8,3.22-1.6,4.18-3.06c0.46-0.7,0.73-1.5,1.2-2.19C345.57,283.52,346.12,282.87,346.95,282.95z"/>
	<path class="st3" d="M347.81,283.36c-0.13-0.19-0.27-0.39-0.47-0.5c-0.22-0.13-0.49-0.14-0.74-0.16c-1.5-0.07-3.06-0.12-4.44,0.47
		c-0.45,0.19-0.88,0.46-1.36,0.54c-0.93,0.17-1.83-0.35-2.77-0.46c-1.48-0.18-2.88,0.65-4.15,1.44c-1.31,0.82-2.62,1.64-3.94,2.47
		c-0.75,0.47-1.52,0.96-2.02,1.69c-0.57,0.82-0.73,1.87-1.26,2.71c-0.79,1.26-2.28,1.93-3.1,3.18c-0.89,1.36-0.81,3.14-1.46,4.63
		c-0.29,0.65-0.71,1.24-0.94,1.91c-0.33,0.96-0.23,2.01-0.12,3.02c0.18,1.77,0.39,3.6,1.3,5.13c-0.03-1.22-0.06-2.44-0.09-3.67
		c-0.01-0.54,0.28-1.31,0.78-1.11c0.19,1.37,0.58,2.72,1.15,3.98c0.17-0.56,0.35-1.13,0.52-1.69c0.33,2.32,1.05,4.58,2.11,6.67
		c-0.15-1.57-0.29-3.15-0.44-4.72c-0.05-0.52-0.05-1.16,0.39-1.45c0.15,2.67,0.78,5.32,1.85,7.77c0.27-1.33,0.35-2.7,0.24-4.05
		c0.36-0.23,0.9-0.13,1.15,0.22c0.13-0.23,0.43-0.33,0.67-0.24c0,1.77,0,3.54,0,5.31c0.56-0.55,0.85-1.37,0.75-2.15
		c0.56,0.24,1.12,0.48,1.69,0.73c0.31-2.28-0.58-4.75,0.39-6.84c0.42-0.9,1.15-1.63,1.63-2.51c0.55-1.02,0.74-2.19,1.1-3.29
		c0.4-1.21,1.02-2.33,1.64-3.43c0.73-1.31,2.46-2.24,2.49-3.74c0.03-1.59,1.42-2.79,2.74-5.23c0.19-0.34,1.97-1.31,2.48-2.08
		c0.29-0.44-0.34-0.92-0.17-1.16c0.42-0.6,2.99-0.78,3.44-1.26C349.84,284.47,348.49,284.35,347.81,283.36z"/>
	<g>
		<path class="st5" d="M377.25,294.83c-0.57,0.33-1.13,0.67-1.7,1c-0.12-0.81-0.37-1.76-1.14-2.02c-0.76-0.26-1.52,0.34-2.11,0.89
			c-1.49,1.41-3,2.85-4.03,4.62c-0.9,1.56-1.4,3.35-1.43,5.15c-0.85-0.18-1.56-0.89-1.75-1.74c-0.13-0.57-0.31-1.43-0.88-1.28
			c-0.18,0.05-0.31,0.2-0.49,0.26c-0.58,0.22-0.99-0.56-1.18-1.15c-0.46-1.49-1.3-2.86-2.41-3.95c-0.08,0.88-0.16,1.76-0.23,2.64
			c-1.63-0.23-0.83-3.52-2.42-3.92c0.02,3.19,0.44,6.37,1.26,9.46c-1.83-2.04-3.16-4.53-3.82-7.2c-0.36,0.31-0.71,0.63-1.07,0.94
			c-0.73-0.34-1.29-1.01-1.49-1.79c-0.36,1.68-0.72,3.36-1.09,5.03c-1.24-1.07-1.84-2.83-1.52-4.43c-1.05,0.8-1.85,1.93-2.26,3.19
			c-0.29-0.2-0.77,0.03-0.79,0.38c0.02-1.75,0.05-3.51,0.07-5.26c0.02,0.46-0.29,0.92-0.72,1.09c-0.25,0.1-0.53,0.1-0.8,0.16
			c-0.87,0.2-1.5,1.14-1.36,2.02c-0.38,0.11-0.76,0.22-1.14,0.33c0.04-1.27,0.18-2.54,0.42-3.79c-0.84,1.4-1.88,2.68-3.08,3.8
			c0.05-1.36,0.11-2.72,0.16-4.08c0.02-0.4,0.03-0.81,0.16-1.19c0.11-0.33,0.3-0.62,0.48-0.91c0.57-0.89,1.17-1.79,1.83-2.63
			c-0.51-0.07-1.02-0.12-1.53-0.16c-1.11-0.08-2.37-0.1-3.14,0.7c-0.56,0.58-0.7,1.43-0.91,2.21c-0.77,2.82-2.84,5.22-3.2,8.12
			c-0.19,1.55,0.12,3.11,0.48,4.63c0.18,0.77,0.4,1.54,0.68,2.28c-1.42,2.51-1.67,5.56-1.8,8.48c-0.07,1.58-0.14,3.19,0.28,4.71
			c0.42,1.52,1.43,2.97,2.92,3.5c0.2,0.07,0.41,0.13,0.61,0.07c0.29-0.08,0.47-0.37,0.62-0.63c0.56-0.98,1.12-1.97,1.68-2.95
			c0.12-0.2,0.25-0.42,0.46-0.51c0.34-0.15,0.73,0.07,1.04,0.29c1,0.7,2,1.4,3,2.1c0.38,0.27,0.77,0.54,1.04,0.91
			c0.57,0.78,0.53,1.83,0.61,2.79c0.12,1.35,0.59,2.74,1.63,3.62c1.04,0.88,2.72,1.05,3.72,0.13c0.4-0.37,0.66-0.88,0.88-1.38
			c0.4-0.94,0.71-1.92,0.92-2.92c0.59,0.32,1.35,0,1.81-0.5c0.45-0.5,0.71-1.14,1.11-1.69c1.14-1.57,3.19-2.11,5.04-2.7
			c0.41-0.13,0.82-0.27,1.14-0.56c0.29-0.25,0.48-0.6,0.7-0.91c1.96-2.74,6.17-2.77,8.78-4.92c0.88-0.72,2.29-0.41,3.19-1.12
			c0.36-0.28,0.58-0.7,0.8-1.1c1.08-2.02,2.19-4.11,2.37-6.4c0.07-0.82,0.01-1.65,0.12-2.46c0.14-1.04,0.54-2.03,0.86-3.03
			c0.77-2.41,1.04-4.96,0.85-7.48c-0.57,1.43-1.28,2.81-2.15,4.07C377.28,296.71,377.27,295.77,377.25,294.83z"/>
		<path class="st4" d="M380.67,298.37c-0.67-2.41-1.06-4.9-1.15-7.4c-0.06-1.71,0.01-3.44-0.35-5.11c-0.31-1.43-0.93-2.77-1.41-4.15
			c-0.58-1.65-0.98-3.37-1.38-5.08c-0.58-2.52-1.02-5.14-1.79-7.61c-0.58-1.87-1.79-3.45-2.3-5.36c-0.66-2.48-0.49-5.21-1.7-7.47
			c-0.52-0.97-1.44-1.87-2.53-1.83c-1.03,0.04-1.82,0.89-2.49,1.67c-2.28,2.7-4.5,5.47-6.38,8.45c-1.75,2.77-3.21,5.72-4.67,8.66
			c-0.74,1.5-1.49,3.01-2.09,4.58c-0.9,2.34-1.49,4.86-2.96,6.89c-0.27,0.38-0.59,0.74-1,0.96c-0.55,0.3-1.21,0.29-1.83,0.41
			c-0.62,0.12-1.28,0.45-1.43,1.06c0.13,0.29,0.26,0.59,0.39,0.88c-1.14,0.6-2.05,1.51-2.86,2.52c-0.66,0.83-1.26,1.73-1.83,2.63
			c-0.19,0.29-0.37,0.59-0.48,0.91c-0.13,0.38-0.14,0.79-0.16,1.19c-0.05,1.36-0.11,2.72-0.16,4.08c1.2-1.11,2.24-2.4,3.08-3.8
			c-0.24,1.25-0.38,2.52-0.42,3.79c0.38-0.11,0.76-0.22,1.14-0.33c-0.14-0.88,0.49-1.82,1.36-2.02c0.26-0.06,0.54-0.06,0.8-0.16
			c0.43-0.16,0.74-0.62,0.72-1.09c-0.02,1.75-0.05,3.51-0.07,5.26c0.02-0.35,0.5-0.58,0.79-0.38c0.41-1.26,1.21-2.38,2.26-3.19
			c-0.32,1.61,0.29,3.36,1.52,4.43c0.36-1.68,0.72-3.36,1.09-5.03c0.2,0.78,0.76,1.45,1.49,1.79c0.36-0.31,0.71-0.63,1.07-0.94
			c0.66,2.66,1.98,5.16,3.82,7.2c-0.81-3.08-1.23-6.27-1.26-9.46c1.6,0.39,0.8,3.68,2.42,3.92c0.08-0.88,0.16-1.76,0.23-2.64
			c1.11,1.09,1.95,2.46,2.41,3.95c0.18,0.59,0.6,1.37,1.18,1.15c0.17-0.06,0.31-0.22,0.49-0.26c0.57-0.14,0.76,0.71,0.88,1.28
			c0.19,0.85,0.9,1.56,1.75,1.74c0.04-1.8,0.53-3.59,1.43-5.15c1.03-1.78,2.53-3.21,4.03-4.62c0.58-0.55,1.35-1.14,2.11-0.89
			c0.77,0.26,1.02,1.21,1.14,2.02c0.57-0.33,1.13-0.67,1.7-1c0.02,0.94,0.04,1.87,0.06,2.81c0.87-1.27,1.58-2.64,2.15-4.07
			c0.08-0.19,0.18-0.37,0.25-0.56C379.45,294.84,379.8,296.75,380.67,298.37z"/>
	</g>
	<path class="st6" d="M376.02,258.42c0.47-0.13,0.91-0.37,1.4-0.42c0.75-0.08,1.5,0.32,1.99,0.9c0.49,0.58,0.74,1.32,0.91,2.06
		c-0.39-0.3-0.92-0.35-1.41-0.37c-1.66-0.07-3.65,1.12-5.29,0.86c-0.5-0.08-0.78-1.33-0.85-1.83c-0.04-0.26,0.09-0.52,0.25-0.74
		c0.48-0.64,1.27-0.99,2.07-1.1c0.79-0.11,1.6,0,2.39,0.14"/>
	<path class="st3" d="M376.82,258.29c0.56-0.08,1.12-0.38,1.34-0.9c0.3-0.69-0.07-1.47-0.43-2.13c-0.69-1.29-1.36-2.59-2.03-3.9
		c-0.13-0.26-0.26-0.51-0.4-0.77c-0.26-0.51-0.53-1.02-0.75-1.55c-0.23-0.53-0.43-1.09-0.83-1.5c0.01,0.52,0.02,1.05,0.03,1.57
		c0,0.13,0,0.28-0.09,0.38c-0.15,0.15-0.42,0.06-0.53-0.12s-0.11-0.4-0.11-0.61c-0.01-0.33-0.05-0.68-0.23-0.95
		c-0.18-0.28-0.52-0.47-0.84-0.39c-0.4,0.11-0.59,0.57-0.62,0.99c-0.03,0.41,0.03,0.85-0.12,1.23c-0.21,0.51-0.84,0.81-1.37,0.65
		c-0.39-0.12-0.68-0.43-0.96-0.72c-1.78-1.84-3.85-3.38-6.11-4.57c-0.3,0.46,0.04,1.06,0.34,1.51c0.97,1.43,1.76,2.98,2.33,4.61
		c-1.63,0.3-3.3-0.69-4.92-0.36c-0.14,0.03-0.28,0.07-0.36,0.18c-0.13,0.18-0.03,0.43,0.08,0.63c0.18,0.34,0.36,0.69,0.54,1.03
		c0.1,0.2,0.21,0.42,0.15,0.63c-0.07,0.26-0.37,0.4-0.64,0.44c-0.27,0.04-0.56,0.03-0.8,0.16c-0.24,0.13-0.4,0.48-0.22,0.68
		c0.34-0.06,0.65,0.25,0.75,0.58c0.1,0.33,0.07,0.69,0.13,1.03c0.21,1.2,1.52,1.97,2.73,1.9s2.29-0.81,3.13-1.69
		c0.5-0.53,1-1.15,1.71-1.3c0.27-0.06,0.65,0.04,0.66,0.32c0,0.09-0.04,0.19-0.08,0.27c-0.74,1.44-2.16,2.45-2.85,3.92
		c-0.31,0.66-0.46,1.38-0.55,2.1c-0.06,0.5-0.1,1.01,0.02,1.5c0.21,0.9,0.92,1.62,1.74,2.06c0.82,0.44,1.74,0.62,2.65,0.78
		c0.33,0.06,0.67,0.12,0.94,0.31c0.44,0.31,0.6,0.88,0.84,1.37c0.33,0.69,0.89,1.29,1.59,1.6c0.7,0.31,1.55,0.31,2.22-0.06
		c0.76-0.42,1.19-1.23,1.59-2c0.31-0.6,0.63-1.21,0.81-1.86c0.3-1.08,0.22-2.22,0.13-3.33c-0.03-0.36-0.07-0.73-0.27-1.02
		s-2.96-0.62-3.6-0.89c0-0.11,0.01-0.21,0.01-0.32c0.73-0.5,1.51-0.93,2.32-1.27"/>
	<circle class="st7" cx="369.85" cy="258.7" r="1.12"/>
	<path class="st5" d="M341.32,266.77c-0.18-1.15-0.31-2.31-0.69-3.41c-0.34-0.98-0.86-1.89-1.38-2.79c-1-1.73-2-3.46-2.99-5.19
		c-0.19-0.32-0.38-0.65-0.69-0.86c-0.29-0.19-0.66-0.24-0.99-0.35c-1.36-0.43-2.21-1.74-3.09-2.86c-3.38-4.29-8.88-6.83-14.33-6.62
		c-0.68,0.03-1.38,0.1-1.96,0.46c-0.98,0.61-1.32,1.85-1.51,2.99c-0.27,1.7-0.36,3.42-0.25,5.14c-0.6-0.47-1.43,0.29-1.62,1.02
		c-0.19,0.73-0.19,1.62-0.8,2.08c-0.3,0.22-0.68,0.29-1.04,0.35c-1.66,0.28-3.38,0.69-4.63,1.81c-0.73,0.65-1.25,1.5-1.76,2.34
		c-2.66,4.37-5.35,8.8-6.83,13.69c-1.25,4.12-1.62,8.53-3.42,12.44c0.82-2.04,1.64-4.07,2.46-6.11c0.74-1.84,1.49-3.7,2.67-5.3
		c0.93-1.26,2.09-2.32,3.09-3.52c1.4-1.67,2.48-3.63,4.13-5.05c0.52-0.44,1.16-0.85,1.83-0.75c0.91,0.13,1.42,1.09,1.79,1.93
		c0.78,1.76,1.55,3.53,2.33,5.29c0.63,1.42,1.26,2.86,2.24,4.07c1.16,1.43,2.74,2.45,4.29,3.44c0.31,0.2,0.63,0.4,0.99,0.44
		c0.38,0.04,0.76-0.1,1.12-0.24c4.17-1.62,8.89-2.75,13.07-1.15c1.91,0.73,3.57,1.99,5.43,2.86c0.25,0.12,0.52,0.23,0.79,0.18
		c0.38-0.06,0.64-0.41,0.96-0.64c1.21-0.87,2.72,0.11,4-0.33c1.68-0.58,0.25-2.73-0.16-3.92
		C343.09,274.47,341.93,270.68,341.32,266.77z"/>
</g>
</svg>
